<svg xmlns="http://www.w3.org/2000/svg" version="1.1" xmlns:xlink="http://www.w3.org/1999/xlink" xmlns:svgjs="http://svgjs.dev/svgjs" width="1000" height="1000"><style>
    #light-icon {
      display: inline;
    }
    #dark-icon {
      display: none;
    }

    @media (prefers-color-scheme: dark) {
      #light-icon {
        display: none;
      }
      #dark-icon {
        display: inline;
      }
    }
  </style><g id="light-icon"><svg xmlns="http://www.w3.org/2000/svg" version="1.1" xmlns:xlink="http://www.w3.org/1999/xlink" xmlns:svgjs="http://svgjs.dev/svgjs" width="1000" height="1000"><g clip-path="url(#SvgjsClipPath1119)"><rect width="1000" height="1000" fill="#ffffff"></rect><g transform="matrix(0.9765625,0,0,0.9765625,0,0)"><svg xmlns="http://www.w3.org/2000/svg" version="1.1" xmlns:xlink="http://www.w3.org/1999/xlink" xmlns:svgjs="http://svgjs.dev/svgjs" width="1024" height="1024"><svg xmlns="http://www.w3.org/2000/svg" xml:space="preserve" fill-rule="evenodd" stroke-linejoin="round" stroke-miterlimit="2" clip-rule="evenodd" viewBox="0 0 1024 1024"><g fill-rule="nonzero"><path d="m70.259 336.535 31.431-10.212 39.635 64.209-5.585-75.273 27.006-8.775 39.4 63.487-5.35-74.55 31.431-10.213 6.224 109.815-35.315 11.474-39.667-63.999 5.617 75.063-35.315 11.474-59.512-92.5ZM367.497 295.575l2.994 9.213-75.597 24.563c3.247 7.332 7.836 12.132 13.765 14.4 5.929 2.267 13.109 2.031 21.538-.708 6.805-2.21 13.446-5.484 19.926-9.819 6.48-4.336 12.818-9.773 19.014-16.313l8.1 24.928c-6.708 5.375-13.646 10.042-20.813 14.002a127.11 127.11 0 0 1-22.223 9.667c-18.304 5.947-34.041 5.918-47.209-.088-13.169-6.007-22.482-17.409-27.941-34.209-5.361-16.498-4.594-31.093 2.3-43.784 6.893-12.692 19.071-21.874 36.533-27.548 15.896-5.165 30.171-4.511 42.826 1.962 12.654 6.473 21.583 17.718 26.787 33.734Zm-36.729.052c-1.996-6.142-5.396-10.512-10.202-13.111-4.805-2.6-10.098-2.96-15.879-1.082-6.262 2.035-10.777 5.449-13.547 10.243-2.769 4.794-3.559 10.66-2.371 17.596l41.999-13.646ZM238.602 504.912c2.06-7.593 5.371-13.944 9.935-19.055 4.564-5.111 10.217-8.762 16.961-10.953 11.621-3.776 21.637-3.069 30.046 2.12 8.41 5.189 14.835 14.618 19.277 28.286l20.014 61.598-32.515 10.565-17.138-52.747a65.87 65.87 0 0 0-.657-2.482 114.26 114.26 0 0 0-1.129-3.628c-2.328-7.165-5.069-12.016-8.223-14.553-3.155-2.536-7.08-3.042-11.777-1.516-6.141 1.996-10.061 6.066-11.76 12.209-1.698 6.144-1.052 14.022 1.938 23.635l16.141 49.676-32.515 10.565-17.139-52.747c-3.639-11.199-6.945-18.097-9.918-20.692-2.974-2.595-6.929-3.091-11.867-1.487-6.202 2.015-10.162 6.115-11.881 12.298-1.718 6.184-1.042 14.002 2.03 23.456l16.17 49.766-32.515 10.564-32.868-101.157 32.514-10.565 4.813 14.813c2.116-7.012 5.278-12.799 9.487-17.362 4.209-4.563 9.415-7.852 15.617-9.867 6.984-2.27 13.704-2.589 20.158-.958 6.455 1.63 12.055 5.036 16.801 10.218ZM395.551 496.854c-6.744 2.191-11.445 4.983-14.104 8.377-2.658 3.393-3.264 7.318-1.816 11.773 1.331 4.095 3.742 6.856 7.235 8.284 3.493 1.428 7.678 1.35 12.555-.235 6.082-1.976 10.491-5.822 13.227-11.537 2.736-5.715 3.038-11.855.906-18.418l-1.204-3.703-16.799 5.459Zm45.443-28.246 18.752 57.714-32.605 10.594-4.871-14.993c-2.34 7.55-5.765 13.606-10.274 18.167-4.51 4.56-10.648 8.102-18.416 10.626-10.477 3.404-19.974 3.112-28.493-.877-8.519-3.989-14.363-10.86-17.533-20.615-3.854-11.862-2.602-21.888 3.757-30.078 6.359-8.191 18.27-15.123 35.731-20.797l19.058-6.192-.822-2.529c-1.663-5.118-4.898-8.211-9.705-9.278-4.807-1.068-11.486-.213-20.036 2.565-6.924 2.25-13.142 5.036-18.653 8.358-5.511 3.322-10.376 7.199-14.594 11.632l-8.012-24.657a194.91 194.91 0 0 1 19.617-10.618 177.34 177.34 0 0 1 20.528-8.118c18.245-5.928 32.585-6.61 43.022-2.046 10.436 4.564 18.286 14.945 23.549 31.142ZM444.159 376.013l32.335-10.506 24.856 76.5 25.15-49.212 37.573-12.208-34.32 62.477 71.072 37.419-39.199 12.736-53.174-29.355 13.705 42.179-32.334 10.507-45.664-140.537ZM692.325 394.535l2.993 9.212-75.597 24.563c3.248 7.333 7.836 12.133 13.765 14.4 5.929 2.267 13.109 2.032 21.539-.707 6.804-2.211 13.446-5.484 19.925-9.82 6.48-4.335 12.818-9.773 19.015-16.313l8.099 24.928c-6.708 5.375-13.646 10.042-20.813 14.002a127.101 127.101 0 0 1-22.222 9.667c-18.305 5.947-34.042 5.918-47.21-.088-13.169-6.006-22.482-17.409-27.941-34.209-5.36-16.498-4.594-31.093 2.3-43.784 6.893-12.691 19.071-21.874 36.533-27.548 15.896-5.164 30.171-4.511 42.826 1.962 12.654 6.473 21.583 17.718 26.788 33.735Zm-36.73.051c-1.996-6.142-5.396-10.512-10.202-13.111-4.805-2.599-10.098-2.96-15.878-1.082-6.263 2.035-10.778 5.449-13.548 10.243-2.769 4.795-3.559 10.66-2.371 17.596l41.999-13.646ZM295.609 765.183c-2.538 7.348-6.037 13.278-10.496 17.789-4.459 4.511-10.211 7.911-17.256 10.2-12.343 4.011-24.129 2.465-35.357-4.638-11.229-7.102-19.288-18.18-24.179-33.234-4.911-15.113-4.902-28.813.026-41.098 4.929-12.286 13.565-20.434 25.909-24.445 7.044-2.289 13.696-2.919 19.955-1.891 6.259 1.029 12.585 3.8 18.978 8.313l-4.872-14.993 32.515-10.565 29.552 90.952c5.282 16.257 4.184 30.344-3.294 42.26-7.479 11.916-20.972 21.043-40.481 27.382-6.322 2.055-12.591 3.559-18.804 4.512-6.214.954-12.625 1.406-19.231 1.356l-8.188-25.199c6.716 1.413 13.044 2.036 18.981 1.871 5.938-.165 11.646-1.138 17.126-2.918 10.597-3.444 17.611-8.286 21.042-14.526 3.431-6.241 3.542-14.299.334-24.174l-2.26-6.954Zm-41.77-56.027c-6.683 2.172-11.089 6.333-13.218 12.483-2.129 6.151-1.726 13.742 1.208 22.774 3.013 9.273 7.104 15.715 12.272 19.329 5.168 3.613 11.214 4.294 18.139 2.044 6.744-2.191 11.18-6.362 13.309-12.512 2.129-6.151 1.736-13.712-1.179-22.683-2.935-9.032-7.071-15.411-12.409-19.135-5.337-3.724-11.378-4.491-18.122-2.3ZM395.319 701.431c-6.743 2.191-11.445 4.983-14.103 8.377-2.659 3.393-3.264 7.318-1.816 11.774 1.33 4.094 3.742 6.855 7.235 8.283 3.492 1.428 7.677 1.35 12.555-.235 6.081-1.976 10.49-5.821 13.226-11.537 2.737-5.715 3.039-11.854.906-18.418l-1.203-3.703-16.8 5.459Zm45.443-28.246 18.753 57.714-32.606 10.594-4.871-14.993c-2.34 7.551-5.764 13.606-10.274 18.167-4.509 4.56-10.648 8.103-18.415 10.626-10.477 3.405-19.975 3.112-28.494-.877-8.519-3.988-14.363-10.86-17.532-20.615-3.855-11.861-2.602-21.888 3.757-30.078 6.359-8.191 18.269-15.123 35.731-20.797l19.057-6.192-.822-2.529c-1.663-5.118-4.898-8.211-9.705-9.278-4.807-1.068-11.485-.212-20.036 2.566-6.924 2.25-13.142 5.035-18.653 8.357-5.511 3.322-10.376 7.199-14.594 11.632l-8.011-24.657a194.787 194.787 0 0 1 19.616-10.618 177.644 177.644 0 0 1 20.529-8.118c18.244-5.928 32.585-6.61 43.021-2.046 10.437 4.564 18.286 14.945 23.549 31.142ZM555.933 606.307c2.059-7.593 5.371-13.944 9.935-19.055 4.563-5.111 10.217-8.762 16.961-10.953 11.621-3.776 21.636-3.069 30.046 2.12s14.835 14.618 19.276 28.286l20.015 61.598-32.515 10.565-17.139-52.747a61.813 61.813 0 0 0-.657-2.482c-.243-.853-.62-2.062-1.128-3.628-2.328-7.165-5.07-12.016-8.224-14.553-3.154-2.536-7.079-3.042-11.776-1.516-6.142 1.996-10.062 6.066-11.76 12.209-1.698 6.144-1.052 14.022 1.938 23.635l16.14 49.676-32.515 10.565-17.138-52.747c-3.639-11.199-6.945-18.097-9.919-20.692-2.973-2.596-6.929-3.091-11.866-1.487-6.202 2.015-10.162 6.115-11.881 12.298-1.719 6.184-1.042 14.002 2.029 23.456l16.17 49.766-32.515 10.564-32.868-101.157 32.515-10.565 4.813 14.813c2.115-7.012 5.278-12.799 9.487-17.362 4.209-4.563 9.414-7.852 15.616-9.867 6.985-2.27 13.705-2.589 20.159-.958 6.455 1.63 12.055 5.036 16.801 10.218ZM766.787 574.842l2.993 9.213-75.597 24.563c3.248 7.332 7.836 12.132 13.766 14.4 5.929 2.267 13.108 2.031 21.538-.708 6.804-2.211 13.446-5.484 19.926-9.819 6.48-4.336 12.818-9.773 19.014-16.313l8.1 24.928c-6.708 5.374-13.646 10.042-20.814 14.002a127.101 127.101 0 0 1-22.222 9.667c-18.305 5.947-34.041 5.918-47.21-.089-13.168-6.006-22.482-17.409-27.94-34.208-5.361-16.498-4.594-31.093 2.299-43.784 6.894-12.692 19.071-21.874 36.533-27.548 15.896-5.165 30.172-4.511 42.826 1.962 12.655 6.473 21.584 17.718 26.788 33.734Zm-36.73.052c-1.995-6.142-5.396-10.512-10.201-13.112-4.806-2.599-10.099-2.959-15.879-1.081-6.262 2.034-10.778 5.449-13.547 10.243-2.77 4.794-3.56 10.659-2.371 17.596l41.998-13.646ZM854.974 494.065l7.982 24.566c-7.863-.64-15.251-.636-22.164.012-6.912.649-13.228 1.902-18.948 3.761-6.142 1.995-10.454 4.245-12.936 6.749-2.481 2.504-3.204 5.351-2.167 8.542.842 2.59 2.616 4.21 5.324 4.861 2.708.651 7.09.359 13.146-.876l5.954-1.036c17.243-3.273 29.508-3.43 36.793-.472 7.285 2.959 12.601 9.586 15.946 19.883 3.502 10.778 2.16 20.168-4.028 28.169-6.187 8.002-17.168 14.566-32.944 19.691-6.684 2.172-13.764 3.89-21.242 5.155-7.478 1.264-15.322 2.066-23.533 2.404l-7.983-24.567c7.461 1.038 14.832 1.239 22.115.603a95.992 95.992 0 0 0 21.4-4.357c6.323-2.054 10.796-4.473 13.42-7.256 2.624-2.783 3.378-5.891 2.263-9.323-.939-2.89-2.737-4.686-5.395-5.386-2.657-.701-7.395-.377-14.213.973l-5.924 1.126c-14.978 2.87-26.15 2.805-33.515-.194-7.365-2.999-12.662-9.466-15.89-19.401-3.482-10.718-2.392-19.86 3.272-27.425 5.663-7.565 16.082-13.813 31.255-18.743 5.961-1.937 12.37-3.52 19.227-4.749 6.857-1.23 14.452-2.133 22.785-2.71ZM909.869 545.926l32.515-10.564 11.357 34.953-32.515 10.565-11.357-34.954Z"></path></g></svg></svg></g></g><defs><clipPath id="SvgjsClipPath1119"><rect width="1000" height="1000" x="0" y="0" rx="300" ry="300"></rect></clipPath></defs></svg></g><g id="dark-icon"><svg xmlns="http://www.w3.org/2000/svg" version="1.1" xmlns:xlink="http://www.w3.org/1999/xlink" xmlns:svgjs="http://svgjs.dev/svgjs" width="1000" height="1000"><g><g transform="matrix(0.9765625,0,0,0.9765625,0,0)" style="filter: invert(100%)"><svg xmlns="http://www.w3.org/2000/svg" version="1.1" xmlns:xlink="http://www.w3.org/1999/xlink" xmlns:svgjs="http://svgjs.dev/svgjs" width="1024" height="1024"><svg xmlns="http://www.w3.org/2000/svg" xml:space="preserve" fill-rule="evenodd" stroke-linejoin="round" stroke-miterlimit="2" clip-rule="evenodd" viewBox="0 0 1024 1024"><g fill-rule="nonzero"><path d="m70.259 336.535 31.431-10.212 39.635 64.209-5.585-75.273 27.006-8.775 39.4 63.487-5.35-74.55 31.431-10.213 6.224 109.815-35.315 11.474-39.667-63.999 5.617 75.063-35.315 11.474-59.512-92.5ZM367.497 295.575l2.994 9.213-75.597 24.563c3.247 7.332 7.836 12.132 13.765 14.4 5.929 2.267 13.109 2.031 21.538-.708 6.805-2.21 13.446-5.484 19.926-9.819 6.48-4.336 12.818-9.773 19.014-16.313l8.1 24.928c-6.708 5.375-13.646 10.042-20.813 14.002a127.11 127.11 0 0 1-22.223 9.667c-18.304 5.947-34.041 5.918-47.209-.088-13.169-6.007-22.482-17.409-27.941-34.209-5.361-16.498-4.594-31.093 2.3-43.784 6.893-12.692 19.071-21.874 36.533-27.548 15.896-5.165 30.171-4.511 42.826 1.962 12.654 6.473 21.583 17.718 26.787 33.734Zm-36.729.052c-1.996-6.142-5.396-10.512-10.202-13.111-4.805-2.6-10.098-2.96-15.879-1.082-6.262 2.035-10.777 5.449-13.547 10.243-2.769 4.794-3.559 10.66-2.371 17.596l41.999-13.646ZM238.602 504.912c2.06-7.593 5.371-13.944 9.935-19.055 4.564-5.111 10.217-8.762 16.961-10.953 11.621-3.776 21.637-3.069 30.046 2.12 8.41 5.189 14.835 14.618 19.277 28.286l20.014 61.598-32.515 10.565-17.138-52.747a65.87 65.87 0 0 0-.657-2.482 114.26 114.26 0 0 0-1.129-3.628c-2.328-7.165-5.069-12.016-8.223-14.553-3.155-2.536-7.08-3.042-11.777-1.516-6.141 1.996-10.061 6.066-11.76 12.209-1.698 6.144-1.052 14.022 1.938 23.635l16.141 49.676-32.515 10.565-17.139-52.747c-3.639-11.199-6.945-18.097-9.918-20.692-2.974-2.595-6.929-3.091-11.867-1.487-6.202 2.015-10.162 6.115-11.881 12.298-1.718 6.184-1.042 14.002 2.03 23.456l16.17 49.766-32.515 10.564-32.868-101.157 32.514-10.565 4.813 14.813c2.116-7.012 5.278-12.799 9.487-17.362 4.209-4.563 9.415-7.852 15.617-9.867 6.984-2.27 13.704-2.589 20.158-.958 6.455 1.63 12.055 5.036 16.801 10.218ZM395.551 496.854c-6.744 2.191-11.445 4.983-14.104 8.377-2.658 3.393-3.264 7.318-1.816 11.773 1.331 4.095 3.742 6.856 7.235 8.284 3.493 1.428 7.678 1.35 12.555-.235 6.082-1.976 10.491-5.822 13.227-11.537 2.736-5.715 3.038-11.855.906-18.418l-1.204-3.703-16.799 5.459Zm45.443-28.246 18.752 57.714-32.605 10.594-4.871-14.993c-2.34 7.55-5.765 13.606-10.274 18.167-4.51 4.56-10.648 8.102-18.416 10.626-10.477 3.404-19.974 3.112-28.493-.877-8.519-3.989-14.363-10.86-17.533-20.615-3.854-11.862-2.602-21.888 3.757-30.078 6.359-8.191 18.27-15.123 35.731-20.797l19.058-6.192-.822-2.529c-1.663-5.118-4.898-8.211-9.705-9.278-4.807-1.068-11.486-.213-20.036 2.565-6.924 2.25-13.142 5.036-18.653 8.358-5.511 3.322-10.376 7.199-14.594 11.632l-8.012-24.657a194.91 194.91 0 0 1 19.617-10.618 177.34 177.34 0 0 1 20.528-8.118c18.245-5.928 32.585-6.61 43.022-2.046 10.436 4.564 18.286 14.945 23.549 31.142ZM444.159 376.013l32.335-10.506 24.856 76.5 25.15-49.212 37.573-12.208-34.32 62.477 71.072 37.419-39.199 12.736-53.174-29.355 13.705 42.179-32.334 10.507-45.664-140.537ZM692.325 394.535l2.993 9.212-75.597 24.563c3.248 7.333 7.836 12.133 13.765 14.4 5.929 2.267 13.109 2.032 21.539-.707 6.804-2.211 13.446-5.484 19.925-9.82 6.48-4.335 12.818-9.773 19.015-16.313l8.099 24.928c-6.708 5.375-13.646 10.042-20.813 14.002a127.101 127.101 0 0 1-22.222 9.667c-18.305 5.947-34.042 5.918-47.21-.088-13.169-6.006-22.482-17.409-27.941-34.209-5.36-16.498-4.594-31.093 2.3-43.784 6.893-12.691 19.071-21.874 36.533-27.548 15.896-5.164 30.171-4.511 42.826 1.962 12.654 6.473 21.583 17.718 26.788 33.735Zm-36.73.051c-1.996-6.142-5.396-10.512-10.202-13.111-4.805-2.599-10.098-2.96-15.878-1.082-6.263 2.035-10.778 5.449-13.548 10.243-2.769 4.795-3.559 10.66-2.371 17.596l41.999-13.646ZM295.609 765.183c-2.538 7.348-6.037 13.278-10.496 17.789-4.459 4.511-10.211 7.911-17.256 10.2-12.343 4.011-24.129 2.465-35.357-4.638-11.229-7.102-19.288-18.18-24.179-33.234-4.911-15.113-4.902-28.813.026-41.098 4.929-12.286 13.565-20.434 25.909-24.445 7.044-2.289 13.696-2.919 19.955-1.891 6.259 1.029 12.585 3.8 18.978 8.313l-4.872-14.993 32.515-10.565 29.552 90.952c5.282 16.257 4.184 30.344-3.294 42.26-7.479 11.916-20.972 21.043-40.481 27.382-6.322 2.055-12.591 3.559-18.804 4.512-6.214.954-12.625 1.406-19.231 1.356l-8.188-25.199c6.716 1.413 13.044 2.036 18.981 1.871 5.938-.165 11.646-1.138 17.126-2.918 10.597-3.444 17.611-8.286 21.042-14.526 3.431-6.241 3.542-14.299.334-24.174l-2.26-6.954Zm-41.77-56.027c-6.683 2.172-11.089 6.333-13.218 12.483-2.129 6.151-1.726 13.742 1.208 22.774 3.013 9.273 7.104 15.715 12.272 19.329 5.168 3.613 11.214 4.294 18.139 2.044 6.744-2.191 11.18-6.362 13.309-12.512 2.129-6.151 1.736-13.712-1.179-22.683-2.935-9.032-7.071-15.411-12.409-19.135-5.337-3.724-11.378-4.491-18.122-2.3ZM395.319 701.431c-6.743 2.191-11.445 4.983-14.103 8.377-2.659 3.393-3.264 7.318-1.816 11.774 1.33 4.094 3.742 6.855 7.235 8.283 3.492 1.428 7.677 1.35 12.555-.235 6.081-1.976 10.49-5.821 13.226-11.537 2.737-5.715 3.039-11.854.906-18.418l-1.203-3.703-16.8 5.459Zm45.443-28.246 18.753 57.714-32.606 10.594-4.871-14.993c-2.34 7.551-5.764 13.606-10.274 18.167-4.509 4.56-10.648 8.103-18.415 10.626-10.477 3.405-19.975 3.112-28.494-.877-8.519-3.988-14.363-10.86-17.532-20.615-3.855-11.861-2.602-21.888 3.757-30.078 6.359-8.191 18.269-15.123 35.731-20.797l19.057-6.192-.822-2.529c-1.663-5.118-4.898-8.211-9.705-9.278-4.807-1.068-11.485-.212-20.036 2.566-6.924 2.25-13.142 5.035-18.653 8.357-5.511 3.322-10.376 7.199-14.594 11.632l-8.011-24.657a194.787 194.787 0 0 1 19.616-10.618 177.644 177.644 0 0 1 20.529-8.118c18.244-5.928 32.585-6.61 43.021-2.046 10.437 4.564 18.286 14.945 23.549 31.142ZM555.933 606.307c2.059-7.593 5.371-13.944 9.935-19.055 4.563-5.111 10.217-8.762 16.961-10.953 11.621-3.776 21.636-3.069 30.046 2.12s14.835 14.618 19.276 28.286l20.015 61.598-32.515 10.565-17.139-52.747a61.813 61.813 0 0 0-.657-2.482c-.243-.853-.62-2.062-1.128-3.628-2.328-7.165-5.07-12.016-8.224-14.553-3.154-2.536-7.079-3.042-11.776-1.516-6.142 1.996-10.062 6.066-11.76 12.209-1.698 6.144-1.052 14.022 1.938 23.635l16.14 49.676-32.515 10.565-17.138-52.747c-3.639-11.199-6.945-18.097-9.919-20.692-2.973-2.596-6.929-3.091-11.866-1.487-6.202 2.015-10.162 6.115-11.881 12.298-1.719 6.184-1.042 14.002 2.029 23.456l16.17 49.766-32.515 10.564-32.868-101.157 32.515-10.565 4.813 14.813c2.115-7.012 5.278-12.799 9.487-17.362 4.209-4.563 9.414-7.852 15.616-9.867 6.985-2.27 13.705-2.589 20.159-.958 6.455 1.63 12.055 5.036 16.801 10.218ZM766.787 574.842l2.993 9.213-75.597 24.563c3.248 7.332 7.836 12.132 13.766 14.4 5.929 2.267 13.108 2.031 21.538-.708 6.804-2.211 13.446-5.484 19.926-9.819 6.48-4.336 12.818-9.773 19.014-16.313l8.1 24.928c-6.708 5.374-13.646 10.042-20.814 14.002a127.101 127.101 0 0 1-22.222 9.667c-18.305 5.947-34.041 5.918-47.21-.089-13.168-6.006-22.482-17.409-27.94-34.208-5.361-16.498-4.594-31.093 2.299-43.784 6.894-12.692 19.071-21.874 36.533-27.548 15.896-5.165 30.172-4.511 42.826 1.962 12.655 6.473 21.584 17.718 26.788 33.734Zm-36.73.052c-1.995-6.142-5.396-10.512-10.201-13.112-4.806-2.599-10.099-2.959-15.879-1.081-6.262 2.034-10.778 5.449-13.547 10.243-2.77 4.794-3.56 10.659-2.371 17.596l41.998-13.646ZM854.974 494.065l7.982 24.566c-7.863-.64-15.251-.636-22.164.012-6.912.649-13.228 1.902-18.948 3.761-6.142 1.995-10.454 4.245-12.936 6.749-2.481 2.504-3.204 5.351-2.167 8.542.842 2.59 2.616 4.21 5.324 4.861 2.708.651 7.09.359 13.146-.876l5.954-1.036c17.243-3.273 29.508-3.43 36.793-.472 7.285 2.959 12.601 9.586 15.946 19.883 3.502 10.778 2.16 20.168-4.028 28.169-6.187 8.002-17.168 14.566-32.944 19.691-6.684 2.172-13.764 3.89-21.242 5.155-7.478 1.264-15.322 2.066-23.533 2.404l-7.983-24.567c7.461 1.038 14.832 1.239 22.115.603a95.992 95.992 0 0 0 21.4-4.357c6.323-2.054 10.796-4.473 13.42-7.256 2.624-2.783 3.378-5.891 2.263-9.323-.939-2.89-2.737-4.686-5.395-5.386-2.657-.701-7.395-.377-14.213.973l-5.924 1.126c-14.978 2.87-26.15 2.805-33.515-.194-7.365-2.999-12.662-9.466-15.89-19.401-3.482-10.718-2.392-19.86 3.272-27.425 5.663-7.565 16.082-13.813 31.255-18.743 5.961-1.937 12.37-3.52 19.227-4.749 6.857-1.23 14.452-2.133 22.785-2.71ZM909.869 545.926l32.515-10.564 11.357 34.953-32.515 10.565-11.357-34.954Z"></path></g></svg></svg></g></g></svg></g></svg>